<svg width="49" height="49" viewBox="0 0 49 49" fill="none" xmlns="http://www.w3.org/2000/svg">
<path d="M33.0569 25.0615C33.0426 22.4396 34.2285 20.4606 36.629 19.0032C35.2859 17.0814 33.2569 16.0241 30.5779 15.8169C28.0417 15.6169 25.2697 17.2958 24.2553 17.2958C23.1837 17.2958 20.7261 15.8884 18.7971 15.8884C14.8107 15.9527 10.5742 19.0675 10.5742 25.4044C10.5742 27.2762 10.9171 29.2098 11.603 31.2054C12.5174 33.8273 15.818 40.2571 19.2615 40.1499C21.0618 40.1071 22.3335 38.8711 24.6768 38.8711C26.9486 38.8711 28.1274 40.1499 30.1349 40.1499C33.607 40.0999 36.5932 34.256 37.4648 31.6269C32.8068 29.4337 33.0569 25.1972 33.0569 25.0615ZM29.0133 13.3308C30.9636 11.0161 30.785 8.90853 30.7279 8.15125C29.0061 8.25126 27.0129 9.32289 25.877 10.6446C24.6268 12.0591 23.8909 13.8094 24.0481 15.7812C25.9127 15.9241 27.613 14.9668 29.0133 13.3308Z" fill="#202020"/>
</svg>
