<svg width="135" height="29" viewBox="0 0 135 29" fill="none" xmlns="http://www.w3.org/2000/svg">
<g clip-path="url(#clip0_8918_3261)">
<path d="M134.081 12.8179V10.5114H131.153V6.92549L131.054 6.95515L128.304 7.77823L128.25 7.79441V10.5114H123.91V8.99794C123.91 8.29317 124.071 7.75381 124.388 7.39413C124.704 7.03873 125.155 6.85809 125.73 6.85809C126.143 6.85809 126.571 6.9534 127.002 7.14133L127.11 7.18843V4.75931L127.059 4.74107C126.657 4.59977 126.111 4.52856 125.433 4.52856C124.579 4.52856 123.803 4.71031 123.127 5.07062C122.449 5.43142 121.917 5.94652 121.544 6.60149C121.172 7.25568 120.983 8.0112 120.983 8.84728V10.5114H118.945V12.8179H120.983V22.5349H123.91V12.8179H128.25V18.9929C128.25 21.5361 129.476 22.8249 131.895 22.8249C132.292 22.8249 132.71 22.7792 133.137 22.69C133.572 22.5985 133.868 22.5069 134.042 22.4093L134.081 22.3871V20.0591L133.962 20.1362C133.803 20.2399 133.605 20.3244 133.373 20.3872C133.14 20.4513 132.946 20.4835 132.795 20.4835C132.228 20.4835 131.809 20.3341 131.549 20.0394C131.286 19.7421 131.153 19.2219 131.153 18.4945V12.8179H134.081ZM112.409 20.4837C111.347 20.4837 110.509 20.1391 109.919 19.4603C109.325 18.7781 109.024 17.8055 109.024 16.5697C109.024 15.2948 109.325 14.297 109.919 13.6027C110.51 12.913 111.339 12.563 112.385 12.563C113.4 12.563 114.208 12.8973 114.786 13.5572C115.368 14.2204 115.663 15.2103 115.663 16.5001C115.663 17.8058 115.385 18.8087 114.838 19.4795C114.295 20.1454 113.477 20.4837 112.409 20.4837ZM112.539 10.2217C110.513 10.2217 108.903 10.8026 107.755 11.9484C106.608 13.0944 106.027 14.6801 106.027 16.6622C106.027 18.5446 106.594 20.0589 107.714 21.162C108.834 22.2656 110.358 22.8247 112.243 22.8247C114.207 22.8247 115.785 22.2357 116.932 21.074C118.079 19.9134 118.66 18.3428 118.66 16.407C118.66 14.4951 118.115 12.9696 117.039 11.8737C115.962 10.7774 114.448 10.2217 112.539 10.2217ZM101.308 10.2216C99.9296 10.2216 98.7894 10.5666 97.9182 11.2467C97.0419 11.9309 96.5974 12.8284 96.5974 13.9142C96.5974 14.4787 96.6933 14.9801 96.8822 15.4053C97.0722 15.8321 97.3662 16.2076 97.7568 16.5229C98.1445 16.8356 98.7427 17.1633 99.5357 17.4965C100.202 17.7648 100.699 17.9919 101.015 18.1708C101.324 18.346 101.543 18.5224 101.667 18.694C101.787 18.8619 101.848 19.0917 101.848 19.3756C101.848 20.1833 101.23 20.5763 99.9572 20.5763C99.4853 20.5763 98.9469 20.48 98.3572 20.2899C97.7671 20.1 97.2158 19.8271 96.7188 19.4771L96.5974 19.3919V22.1484L96.642 22.1687C97.0561 22.3557 97.5781 22.5133 98.1935 22.6375C98.8077 22.7616 99.3656 22.8249 99.8505 22.8249C101.346 22.8249 102.551 22.4782 103.43 21.7941C104.315 21.1052 104.763 20.1866 104.763 19.063C104.763 18.2526 104.522 17.5575 104.046 16.9971C103.573 16.441 102.753 15.9307 101.61 15.4795C100.698 15.1217 100.115 14.8247 99.874 14.5968C99.6419 14.3765 99.524 14.0651 99.524 13.6706C99.524 13.3209 99.6694 13.0409 99.9682 12.8139C100.269 12.5859 100.688 12.47 101.214 12.47C101.701 12.47 102.2 12.5453 102.696 12.6929C103.192 12.8406 103.628 13.0383 103.991 13.2803L104.111 13.3603V10.7454L104.065 10.7261C103.729 10.5854 103.287 10.4651 102.75 10.3674C102.215 10.2706 101.73 10.2216 101.308 10.2216ZM88.9677 20.4837C87.9058 20.4837 87.068 20.1391 86.4779 19.4603C85.884 18.7781 85.5836 17.8058 85.5836 16.5697C85.5836 15.2948 85.8843 14.297 86.4786 13.6027C87.0687 12.913 87.898 12.563 88.9442 12.563C89.9587 12.563 90.7664 12.8973 91.3452 13.5572C91.9268 14.2204 92.2218 15.2103 92.2218 16.5001C92.2218 17.8058 91.9441 18.8087 91.3969 19.4795C90.8535 20.1454 90.0366 20.4837 88.9677 20.4837ZM89.0984 10.2217C87.0713 10.2217 85.4615 10.8026 84.3145 11.9484C83.1676 13.0944 82.5856 14.6801 82.5856 16.6622C82.5856 18.5454 83.1536 20.0589 84.2733 21.162C85.393 22.2656 86.9166 22.8247 88.8019 22.8247C90.766 22.8247 92.3441 22.2357 93.4913 21.074C94.638 19.9134 95.2195 18.3428 95.2195 16.407C95.2195 14.4951 94.674 12.9696 93.5978 11.8737C92.5209 10.7774 91.007 10.2217 89.0984 10.2217ZM78.1431 12.5935V10.5114H75.2521V22.5345H78.1431V16.3843C78.1431 15.3384 78.3854 14.4793 78.8636 13.8303C79.3358 13.1892 79.9651 12.8642 80.7333 12.8642C80.9937 12.8642 81.286 12.9062 81.6026 12.9893C81.9159 13.072 82.1429 13.1616 82.2768 13.2559L82.3982 13.342V10.4908L82.3513 10.4711C82.0821 10.3591 81.7013 10.3027 81.2193 10.3027C80.4929 10.3027 79.8427 10.531 79.2859 10.9806C78.7972 11.3758 78.4438 11.9177 78.1737 12.5935H78.1431ZM70.075 10.2216C68.7488 10.2216 67.5658 10.4999 66.5594 11.0484C65.5511 11.598 64.7714 12.3829 64.2408 13.3809C63.7127 14.3765 63.4446 15.5395 63.4446 16.8363C63.4446 17.9722 63.7046 19.0148 64.2184 19.9335C64.7326 20.8538 65.4605 21.5738 66.3818 22.0732C67.3017 22.572 68.3649 22.8249 69.5422 22.8249C70.916 22.8249 72.089 22.5561 73.0295 22.0263L73.0675 22.0049V19.4138L72.946 19.5006C72.52 19.8041 72.0439 20.0464 71.5317 20.221C71.0207 20.3955 70.5548 20.4837 70.1465 20.4837C69.0121 20.4837 68.1015 20.1363 67.4405 19.4519C66.7779 18.7663 66.4421 17.8038 66.4421 16.5925C66.4421 15.3736 66.7924 14.3864 67.4828 13.6578C68.1709 12.9314 69.0832 12.563 70.1941 12.563C71.1444 12.563 72.0704 12.8778 72.9464 13.4995L73.0675 13.5856V10.8555L73.0284 10.8339C72.6987 10.6535 72.2492 10.5044 71.6909 10.3913C71.1352 10.2786 70.5916 10.2216 70.075 10.2216ZM61.4535 10.5114H58.5625V22.5346H61.4535V10.5114ZM60.0375 5.38942C59.5617 5.38942 59.1467 5.54785 58.8058 5.86186C58.4634 6.17682 58.2897 6.5733 58.2897 7.04114C58.2897 7.50168 58.4613 7.89086 58.8003 8.19741C59.1372 8.50302 59.5534 8.65796 60.0375 8.65796C60.5214 8.65796 60.9393 8.50302 61.2802 8.19789C61.6234 7.89086 61.7973 7.50168 61.7973 7.04114C61.7973 6.58963 61.6281 6.19712 61.2943 5.87455C60.961 5.55261 60.5381 5.38942 60.0375 5.38942ZM52.8245 9.62434V22.5345H55.7748V5.7576H51.6915L46.5012 18.219L41.4644 5.7576H37.2148V22.5345H39.9873V9.62307H40.0826L45.4013 22.5345H47.4936L52.7293 9.62434H52.8245Z" fill="#202020"/>
<path d="M13.6192 13.456H0.0195312V0.151245H13.6192V13.456Z" fill="#202020"/>
<path d="M28.6347 13.456H15.0352V0.151245H28.6347V13.456Z" fill="#202020"/>
<path d="M13.6189 28.1513H0.0195312V14.8466H13.6189V28.1513Z" fill="#202020"/>
<path d="M28.6347 28.1513H15.0352V14.8466H28.6347V28.1513Z" fill="#202020"/>
</g>
<defs>
<clipPath id="clip0_8918_3261">
<rect width="134.061" height="28" fill="white" transform="translate(0.0195312 0.151245)"/>
</clipPath>
</defs>
</svg>
