<svg width="98" height="33" viewBox="0 0 98 33" fill="none" xmlns="http://www.w3.org/2000/svg">
<path d="M24.068 11.4544H12.6846V14.8342H20.7584C20.3584 19.5651 16.4187 21.5957 12.6982 21.5957C11.5196 21.6009 10.3517 21.371 9.26278 20.9196C8.17387 20.4682 7.18574 19.8043 6.35608 18.9666C5.52642 18.1289 4.87185 17.1342 4.43059 16.0406C3.98933 14.9469 3.77022 13.7763 3.78605 12.597C3.78605 7.48044 7.74479 3.54109 12.7091 3.54109C16.5387 3.54109 18.7954 5.98385 18.7954 5.98385L21.1594 3.5329C21.1594 3.5329 18.1226 0.151245 12.5855 0.151245C5.53448 0.151245 0.0800781 6.10576 0.0800781 12.537C0.0800781 18.839 5.2108 24.9846 12.7637 24.9846C19.4073 24.9846 24.2707 20.4303 24.2707 13.6961C24.2707 12.275 24.0643 11.4544 24.0643 11.4544H24.068Z" fill="#202020"/>
<path d="M33.3943 9.00616C28.7227 9.00616 25.375 12.6607 25.375 16.9213C25.375 21.2463 28.6209 24.9683 33.4489 24.9683C37.8186 24.9683 41.3981 21.6266 41.3981 17.014C41.3981 11.7373 37.2339 9.00525 33.3943 9.00525V9.00616ZM33.4398 12.1413C35.7364 12.1413 37.9131 13.9999 37.9131 16.994C37.9131 19.9235 35.7455 21.8359 33.4289 21.8359C30.883 21.8359 28.8828 19.7962 28.8828 16.9704C28.8828 14.2046 30.8649 12.1413 33.447 12.1413H33.4398Z" fill="#202020"/>
<path d="M50.8338 9.00616C46.1622 9.00616 42.8145 12.6607 42.8145 16.9213C42.8145 21.2463 46.0604 24.9683 50.8883 24.9683C55.258 24.9683 58.8376 21.6266 58.8376 17.014C58.8376 11.7373 54.6734 9.00525 50.8338 9.00525V9.00616ZM50.8792 12.1413C53.1759 12.1413 55.3526 13.9999 55.3526 16.994C55.3526 19.9235 53.185 21.8359 50.8683 21.8359C48.3225 21.8359 46.3222 19.7962 46.3222 16.9704C46.3222 14.2046 48.3043 12.1413 50.8865 12.1413H50.8792Z" fill="#202020"/>
<path d="M67.9387 9.01562C63.6508 9.01562 60.2812 12.773 60.2812 16.9908C60.2812 21.7944 64.1882 24.9805 67.8641 24.9805C70.1372 24.9805 71.3464 24.077 72.2284 23.0408V24.6147C72.2284 27.3686 70.5572 29.0181 68.0351 29.0181C65.5984 29.0181 64.3764 27.2049 63.9436 26.1768L60.8777 27.4505C61.9651 29.7523 64.1545 32.1513 68.0605 32.1513C72.3338 32.1513 75.5725 29.4648 75.5725 23.8296V9.49508H72.2411V10.847C71.2137 9.73708 69.8062 9.01562 67.9405 9.01562H67.9387ZM68.2478 12.1453C70.3499 12.1453 72.5084 13.9412 72.5084 17.008C72.5084 20.1259 70.3536 21.8435 68.2014 21.8435C65.9157 21.8435 63.789 19.9876 63.789 17.0372C63.789 13.973 65.9984 12.1444 68.2478 12.1444V12.1453Z" fill="#202020"/>
<path d="M90.4616 8.99609C86.4174 8.99609 83.0215 12.2167 83.0215 16.9658C83.0215 21.9932 86.8066 24.9746 90.8408 24.9746C94.2158 24.9746 96.2961 23.1277 97.5235 21.4719L94.7659 19.636C94.0503 20.7459 92.8538 21.8331 90.858 21.8331C88.6159 21.8331 87.5848 20.6049 86.9457 19.4131L97.6408 14.9734L97.0953 13.6724C96.0624 11.125 93.6521 8.99609 90.4625 8.99609H90.4616ZM90.6007 12.0657C92.0582 12.0657 93.1065 12.8408 93.5521 13.7706L86.4092 16.7574C86.1001 14.4448 88.2913 12.0657 90.5916 12.0657H90.6007Z" fill="#202020"/>
<path d="M77.9141 24.5021H81.4273V0.977905H77.9141V24.5021Z" fill="#202020"/>
</svg>
