<svg width="157" height="17" viewBox="0 0 157 17" fill="none" xmlns="http://www.w3.org/2000/svg">
<g clip-path="url(#clip0_8918_3278)">
<path d="M0.640625 0.196959C0.837544 0.968531 1.2386 1.67284 1.80167 2.23591C2.36475 2.79898 3.06905 3.20004 3.84063 3.39696H8.8692L9.09777 3.44267V16.0598H12.2063V3.48839L12.5263 3.35125H17.5549C18.3243 3.14991 19.0263 2.74738 19.5887 2.185C20.151 1.62262 20.5536 0.920667 20.7549 0.151245L0.640625 0.151245V0.196959ZM109.715 0.196959H106.606V16.1055H120.869C121.545 15.8501 122.148 15.4333 122.626 14.8915C123.104 14.3497 123.443 13.6994 123.612 12.997H109.761V0.151245L109.715 0.196959ZM85.8063 3.30553C87.4521 2.84839 88.8235 1.56839 89.1892 0.151245L71.7721 0.196959V9.6141H85.9892V12.9055H74.8349C73.9833 13.1271 73.1884 13.5269 72.5028 14.0785C71.8172 14.6302 71.2565 15.3211 70.8578 16.1055H89.0978V6.50553H74.8349V3.30553H85.8063ZM138.926 16.1055H141.989V9.70553H153.235V16.1055H156.298V6.50553H138.926V16.1055ZM39.6349 3.35125H51.5206C52.3028 3.16622 53.0191 2.76995 53.5915 2.20565C54.1638 1.64136 54.5702 0.930712 54.7663 0.151245L36.4349 0.151245C36.6273 0.925007 37.0268 1.63174 37.5906 2.19553C38.1544 2.75932 38.8612 3.15886 39.6349 3.35125ZM39.6349 9.65982H51.5206C52.3028 9.47479 53.0191 9.07852 53.5915 8.51422C54.1638 7.94993 54.5702 7.23928 54.7663 6.45982H36.4349C36.6273 7.23358 37.0268 7.94031 37.5906 8.5041C38.1544 9.06789 38.8612 9.46743 39.6349 9.65982ZM39.6349 16.1055H51.5206C52.3028 15.9205 53.0191 15.5242 53.5915 14.9599C54.1638 14.3956 54.5702 13.685 54.7663 12.9055H36.4349C36.6273 13.6793 37.0268 14.386 37.5906 14.9498C38.1544 15.5136 38.8612 15.9131 39.6349 16.1055ZM141.669 3.35125H153.555C154.329 3.15886 155.035 2.75932 155.599 2.19553C156.163 1.63174 156.563 0.925007 156.755 0.151245L138.469 0.151245C138.662 0.925007 139.061 1.63174 139.625 2.19553C140.189 2.75932 140.895 3.15886 141.669 3.35125Z" fill="#202020"/>
</g>
<defs>
<clipPath id="clip0_8918_3278">
<rect width="156.343" height="16" fill="white" transform="translate(0.640625 0.151245)"/>
</clipPath>
</defs>
</svg>
