<svg width="127" height="32" viewBox="0 0 127 32" fill="none" xmlns="http://www.w3.org/2000/svg">
<path d="M44.4313 2.69748C44.4313 2.41186 44.3918 2.33781 44.128 2.31666L42.9434 2.18442V0.967896H47.9559V2.18442L46.6949 2.33781C46.4179 2.38013 46.4179 2.41186 46.4179 2.69748V9.99137C46.4179 13.4109 44.5158 14.95 41.2603 14.95C37.6644 14.95 36.195 13.2786 36.195 9.92525V2.69748C36.195 2.41186 36.158 2.33781 35.8942 2.31666L34.707 2.18442V0.967896H39.9596V2.18442L38.6986 2.33781C38.4163 2.37484 38.3978 2.41186 38.3978 2.69748V9.61319C38.3978 12.0251 39.2262 13.1094 41.3711 13.1094C43.5159 13.1094 44.4419 12.2155 44.4419 9.67137L44.4313 2.69748Z" fill="#202020"/>
<path d="M54.9343 14.7226V13.5273L55.8762 13.4109C56.14 13.3739 56.1769 13.2602 56.1769 13.0327V8.62413C56.1769 7.4843 56.045 6.53488 54.842 6.53488C53.8817 6.53488 52.8818 7.0638 52.2619 7.52397V12.9931C52.2619 13.2972 52.2803 13.3369 52.5626 13.3739L53.5598 13.5061V14.7226H48.8929V13.4876L49.7952 13.3739C50.059 13.3369 50.0959 13.2787 50.0959 12.9931V6.87603C50.0959 6.66711 50.0405 6.53488 49.8532 6.47934L48.8164 6.11703L49.0037 4.9005H51.7923L51.9426 5.94512L52.0165 5.96628C53.0718 5.2443 54.1825 4.71008 55.5385 4.71008C57.5699 4.71008 58.3429 6.00331 58.3429 8.18777V12.9931C58.3429 13.2972 58.3613 13.3369 58.6436 13.3739L59.6778 13.5061V14.7226H54.9343Z" fill="#202020"/>
<path d="M60.4883 14.7226V13.5273L61.6174 13.3739C61.8812 13.3368 61.9208 13.2787 61.9208 12.993V6.87601C61.9208 6.66709 61.8628 6.53486 61.6755 6.47932L60.6387 6.117L60.8286 4.90048H64.0947V12.993C64.0947 13.2972 64.1131 13.3368 64.3954 13.3739L65.5061 13.5061V14.7226H60.4883ZM62.7756 3.03866C61.8707 3.03866 61.3615 2.5256 61.3615 1.61585C61.3615 0.706095 61.8628 0.227417 62.7756 0.227417C63.6884 0.227417 64.187 0.721963 64.187 1.61585C64.187 2.50973 63.6515 3.03866 62.7756 3.03866Z" fill="#202020"/>
<path d="M69.8267 14.7227L66.7321 6.64861C66.6582 6.42117 66.5633 6.38415 66.3364 6.32597L65.5449 6.15407L65.7876 4.90051H70.233V6.15407L68.9693 6.30745L71.2856 12.6334H71.3621L73.6942 6.30745L72.4543 6.15407L72.6601 4.90051H76.5382V6.15407L75.8971 6.27043C75.6544 6.30745 75.5225 6.34448 75.4275 6.59307L72.3409 14.7227H69.8267Z" fill="#202020"/>
<path d="M85.1495 14.0588C84.0335 14.6423 82.7938 14.948 81.5352 14.9501C78.0343 14.9501 76.8867 12.6889 76.8867 9.76397C76.8867 6.32595 78.8627 4.71008 81.3294 4.71008C83.7038 4.71008 85.3183 5.98479 85.3183 9.29058C85.3183 9.53653 85.2999 10.0311 85.2629 10.3907H79.1819C79.2769 12.1574 79.9549 13.202 81.7805 13.202C82.7039 13.202 83.4188 13.0142 84.548 12.5382L85.1495 14.0588ZM83.155 8.81455C83.155 6.96331 82.3082 6.36298 81.2898 6.36298C80.2187 6.36298 79.2954 7.08496 79.2004 8.81455H83.155Z" fill="#202020"/>
<path d="M86.6371 14.7227V13.4876L87.5393 13.3739C87.8031 13.3369 87.8427 13.2787 87.8427 12.9931V6.87608C87.8561 6.79144 87.8387 6.7048 87.7936 6.63197C87.7486 6.55914 87.6789 6.50498 87.5973 6.47938L86.5605 6.11707L86.7505 4.90054H89.5549L89.7607 6.28897L89.8187 6.30748C90.4387 5.49029 91.3251 4.7207 92.5861 4.7207C93.0798 4.72529 93.5716 4.78292 94.053 4.8926V7.9974L92.3593 7.93393L92.135 6.75707C92.1139 6.58517 92.077 6.54814 91.9081 6.54814C91.1932 6.54814 90.3833 7.17492 90.006 7.53723V12.9746C90.006 13.2787 90.0429 13.3369 90.3279 13.3554L92.0954 13.5062V14.7227H86.6371Z" fill="#202020"/>
<path d="M100.68 7.73289L100.474 6.63008C100.472 6.56942 100.451 6.51097 100.414 6.46335C100.376 6.41573 100.324 6.38147 100.266 6.36562C99.8243 6.2419 99.3682 6.17874 98.9098 6.17785C97.7068 6.17785 97.1211 6.61421 97.1211 7.37322C97.1211 8.38083 98.1764 8.60826 99.3635 8.89388C100.849 9.25355 102.529 9.71107 102.529 11.877C102.529 14.117 100.683 14.9527 98.5404 14.9527C96.9206 14.9527 95.3403 14.5164 95 14.2889V11.7025L96.5618 11.7977L96.7518 12.956C96.7887 13.1094 96.8072 13.165 96.976 13.2205C97.5244 13.396 98.0967 13.4852 98.6723 13.485C99.8384 13.485 100.553 13.1438 100.553 12.1626C100.553 11.1048 99.3504 10.9276 98.0867 10.642C96.6568 10.3193 95.1504 9.86182 95.1504 7.84926C95.1504 5.55107 97.0525 4.69421 99.0865 4.69421C100.166 4.69634 101.236 4.88327 102.252 5.24694V7.81223L100.68 7.73289Z" fill="#202020"/>
<path d="M103.58 14.7226V13.5273L104.709 13.3739C104.973 13.3368 105.01 13.2787 105.01 12.993V6.87601C105.01 6.66709 104.955 6.53486 104.767 6.47932L103.73 6.117L103.918 4.90048H107.176V12.993C107.176 13.2972 107.194 13.3368 107.477 13.3739L108.587 13.5061V14.7226H103.58ZM105.857 3.03866C104.955 3.03866 104.445 2.5256 104.445 1.61585C104.445 0.706095 104.955 0.227417 105.857 0.227417C106.759 0.227417 107.271 0.721963 107.271 1.61585C107.271 2.50973 106.743 3.03866 105.857 3.03866Z" fill="#202020"/>
<path d="M116.38 14.281C115.508 14.6959 114.559 14.9221 113.594 14.9448C111.618 14.9448 110.79 14.0721 110.79 12.1917V6.63801C110.79 6.52429 110.79 6.44759 110.639 6.44759H109.283V5.09883C110.753 4.90842 111.336 3.90346 111.581 2.23206H112.956V4.69949C112.956 4.83437 112.956 4.88991 113.106 4.88991H115.834V6.44759H112.956V11.6364C112.956 12.8159 113.256 13.2522 114.309 13.2522C114.869 13.2342 115.422 13.1252 115.947 12.9296L116.38 14.281Z" fill="#202020"/>
<path d="M123.609 14.7226L123.422 13.6013L123.367 13.5828C122.936 14.0243 122.42 14.3731 121.85 14.6082C121.28 14.8433 120.669 14.9596 120.053 14.9501C117.679 14.9501 117.359 13.3183 117.359 12.2526C117.359 10.3537 118.528 9.44132 120.823 9.25091L123.216 9.0605V8.09256C123.216 6.89719 123.008 6.24132 121.559 6.24132C120.523 6.24132 119.826 6.31802 119.826 7.62975L117.792 7.43934C117.792 5.00628 119.995 4.70215 121.596 4.70215C124.327 4.70215 125.342 5.49554 125.342 8.10314V12.9931C125.342 13.2972 125.361 13.3369 125.643 13.3739L126.567 13.5061V14.7226H123.609ZM122.554 4.00926L119.232 1.27207L120.523 0L123.425 3.19207L122.554 4.00926ZM123.213 10.4489L121.425 10.5997C120.011 10.7345 119.578 11.1286 119.578 12.0436C119.578 12.9587 120.011 13.2602 120.784 13.2602C121.707 13.2602 122.649 12.6889 123.213 12.1203V10.4489Z" fill="#202020"/>
<path d="M42.1395 31.7753L41.9628 30.6592L41.8467 30.6407C41.4138 31.0869 40.8931 31.4381 40.3177 31.6721C39.7424 31.9061 39.1248 32.0178 38.5041 32.0001C36.2432 32.0001 34.75 30.6037 34.75 27.0731C34.75 23.3151 36.5967 21.8235 38.8761 21.8235C39.9078 21.7986 40.9217 22.0953 41.7781 22.6724V19.4645C41.7906 19.3796 41.7703 19.2931 41.7212 19.2228C41.6722 19.1525 41.5981 19.1036 41.5143 19.0863L40.3957 18.7267L40.5909 17.5181H43.9704V30.0563C43.9704 30.3577 43.9915 30.3948 44.287 30.4344L45.2473 30.5667V31.7753H42.1395ZM41.728 24.4681C41.0863 23.9262 40.2863 23.6079 39.4486 23.561C37.7602 23.561 37.0901 24.9971 37.0901 27.0176C37.0901 29.3396 37.8182 30.2255 39.1346 30.2255C40.0976 30.2255 41.0394 29.6596 41.728 28.9614V24.4681Z" fill="#202020"/>
<path d="M46.207 31.7752V30.5852L47.3863 30.4344C47.6501 30.3947 47.7002 30.3392 47.7002 30.0562V23.9736C47.7002 23.7647 47.6422 23.6351 47.4364 23.5769L46.3653 23.2199L46.5605 22.0139H49.9585V30.0562C49.9585 30.3577 49.9796 30.3947 50.2725 30.4344L51.4333 30.5666V31.7752H46.207ZM48.5814 20.1627C47.6396 20.1627 47.1093 19.6523 47.1093 18.7452C47.1093 17.8381 47.6369 17.3673 48.5814 17.3673C49.5259 17.3673 50.0561 17.8592 50.0561 18.7452C50.0561 19.6311 49.5074 20.1627 48.584 20.1627H48.5814Z" fill="#202020"/>
<path d="M69.3709 26.7715C69.1361 26.79 69.057 26.8456 69.057 27.036V31.0955C67.5638 31.7752 65.5983 32 63.9679 32C58.6045 32 56.7578 28.9613 56.7578 24.9018C56.7578 20.8423 59.1744 17.8591 64.1262 17.8591C65.5403 17.8591 67.3686 18.1976 68.5663 18.954V22.5216L66.3845 22.3709L66.0917 20.673C66.031 20.4086 65.9518 20.3319 65.7751 20.2948C65.1848 20.1402 64.578 20.0576 63.9679 20.0489C61.4353 20.0489 59.921 21.9001 59.921 24.8647C59.921 27.9801 61.2955 29.8287 64.1051 29.8287C64.652 29.8259 65.1979 29.7817 65.7382 29.6965C65.9518 29.6595 66.0521 29.6039 66.0521 29.358V26.8852H63.8703L64.1341 25.1848H70.1624V26.6948L69.3709 26.7715Z" fill="#202020"/>
<path d="M79.9945 31.0373C78.7386 31.6514 77.3631 31.9801 75.966 32C72.1723 32 70.877 29.7362 70.877 26.7901C70.877 23.3732 73.0561 21.7494 75.7497 21.7494C78.343 21.7494 80.071 23.0505 80.071 26.3167C80.071 26.5441 80.0525 27.2053 80.0314 27.5834H74.0217C74.1219 28.9243 74.7287 29.8102 76.3406 29.8102C77.1083 29.8102 77.9235 29.641 79.269 29.1676L79.9945 31.0373ZM77.1664 25.7877C77.1453 24.2036 76.4936 23.8016 75.7022 23.8016C74.9107 23.8016 74.1694 24.2539 74.0533 25.801L77.1664 25.7877Z" fill="#202020"/>
<path d="M88.4238 31.7753V25.6767C88.4238 24.7696 88.3658 24.0133 87.3685 24.0133C86.6376 24.0578 85.9323 24.299 85.3266 24.7115V29.7733C85.3266 30.0748 85.345 30.1118 85.6405 30.1515L86.585 30.2837V31.7753H81.1741V30.2652L82.0579 30.1515C82.3349 30.1118 82.3718 30.0562 82.3718 29.7733V24.2196C82.3718 24.0106 82.3138 23.8784 82.108 23.8229L81.0527 23.4632L81.2902 21.9346H84.7198L84.8781 22.9158L84.9546 22.9554C85.9507 22.1955 87.1618 21.7723 88.4132 21.7468C90.5554 21.7468 91.3812 22.8787 91.3812 24.9548V29.7706C91.3812 30.0721 91.3997 30.1091 91.6951 30.1488L92.6765 30.281V31.7726L88.4238 31.7753Z" fill="#202020"/>
<path d="M93.4551 26.9223C93.4551 23.7884 95.1646 21.7494 98.7604 21.7494C102.356 21.7494 103.807 23.8254 103.807 26.7134C103.807 29.9239 102.119 32.0026 98.5045 32.0026C94.8902 32.0026 93.4551 29.8843 93.4551 26.9223ZM100.705 26.8086C100.705 24.5791 99.9977 23.7884 98.7209 23.7884C97.444 23.7884 96.5576 24.5606 96.5576 26.8271C96.5576 29.0935 97.3253 30.0191 98.6417 30.0191C99.9582 30.0191 100.705 29.1676 100.705 26.8086Z" fill="#202020"/>
<path d="M108.365 31.7752L105.249 23.9577C105.151 23.7303 105.072 23.6932 104.837 23.6377L104.012 23.4658L104.318 21.9504H109.642V23.479L108.386 23.6298L110.388 29.0116H110.525L112.61 23.6166L111.333 23.4658L111.581 21.9504H116.118V23.479L115.411 23.5928C115.147 23.6509 115.018 23.688 114.921 23.9128L111.797 31.7885L108.365 31.7752Z" fill="#202020"/>
<path d="M122.885 31.7753L122.688 30.7544L122.59 30.7359C122.152 31.1575 121.635 31.4867 121.068 31.7038C120.501 31.921 119.896 32.0217 119.29 32C116.815 32 116.422 30.3762 116.422 29.2073C116.422 27.3191 117.641 26.449 120.094 26.2982L122.355 26.1475V25.1081C122.355 24.2222 122.258 23.6166 121.036 23.6166C120.092 23.6166 119.601 23.7488 119.601 24.8834L116.831 24.6559C116.831 22.1065 119.247 21.7468 121.052 21.7468C124.038 21.7468 125.239 22.5191 125.239 25.1637V29.7521C125.239 30.0536 125.257 30.0906 125.553 30.1303L126.494 30.281V31.7726L122.885 31.7753ZM122.358 27.7158L121.02 27.8083C119.862 27.885 119.45 28.168 119.45 28.9243C119.45 29.6807 119.92 29.961 120.569 29.961C121.219 29.9166 121.842 29.6801 122.358 29.2814V27.7158Z" fill="#202020"/>
<path d="M12.8416 29.7044C10.8471 29.705 8.8973 29.1125 7.23874 28.0021C5.58018 26.8916 4.28739 25.313 3.5239 23.466C2.76041 21.6189 2.5605 19.5863 2.94948 17.6254C3.33845 15.6644 4.29883 13.8631 5.70914 12.4494C7.11944 11.0356 8.91632 10.0729 10.8725 9.68298C12.8287 9.29306 14.8563 9.49345 16.6988 10.2588C18.5414 11.0242 20.1161 12.3201 21.2239 13.9827C22.3316 15.6454 22.9226 17.6 22.9221 19.5993C22.9186 22.2783 21.8554 24.8465 19.9657 26.7408C18.076 28.6352 15.514 29.7009 12.8416 29.7044ZM12.8416 10.0707C10.9632 10.0707 9.12696 10.6291 7.56512 11.6752C6.00327 12.7214 4.78596 14.2083 4.06713 15.948C3.34829 17.6877 3.16021 19.6019 3.52667 21.4488C3.89313 23.2956 4.79767 24.992 6.12591 26.3235C7.45415 27.655 9.14643 28.5617 10.9888 28.9291C12.8311 29.2965 14.7407 29.1079 16.4761 28.3873C18.2115 27.6667 19.6948 26.4464 20.7384 24.8808C21.782 23.3151 22.339 21.4744 22.339 19.5914C22.3342 17.0678 21.332 14.6491 19.5519 12.8647C17.7719 11.0802 15.359 10.0756 12.8416 10.0707Z" fill="#202020"/>
<path d="M12.8038 16.7379H12.511C12.4998 16.7379 12.489 16.7334 12.4811 16.7255C12.4732 16.7176 12.4687 16.7068 12.4688 16.6956C12.4694 16.6848 12.4742 16.6747 12.482 16.6674C12.4899 16.66 12.5002 16.6559 12.511 16.6559H12.8012L13.094 16.6401L13.2971 16.611L13.3657 16.5951C13.3766 16.5927 13.3879 16.5947 13.3973 16.6007C13.4067 16.6066 13.4133 16.616 13.4159 16.6268C13.4174 16.6322 13.4178 16.6379 13.417 16.6435C13.4163 16.649 13.4143 16.6544 13.4113 16.6591C13.4083 16.6639 13.4044 16.6679 13.3997 16.671C13.395 16.6741 13.3897 16.6762 13.3842 16.6771L13.313 16.6929L13.1019 16.722H13.0043L12.8038 16.7379Z" fill="#202020"/>
<path d="M9.23611 21.6515H9.17016L9.09101 21.6251L9.03825 21.5986L8.98021 21.5616L8.88523 21.469L8.80081 21.35L8.77707 21.3077L8.74805 21.2152V21.157V21.1041L8.79026 21.0247L8.84566 20.9586L8.95646 20.8661L9.07254 20.8026L9.14377 20.7762V20.71L9.17016 20.6651L9.22028 20.6281H9.25721H9.29679H9.33636L9.43925 20.6439L9.61073 20.6757L9.63184 20.7841L9.66349 20.8793L9.76374 21.1252L9.82442 21.2575L9.92467 21.5219H9.80859H9.68196L9.52367 21.5643L9.2836 21.6647L9.23611 21.6515ZM9.25721 20.7391V20.7576V20.8105L9.27041 20.8687L9.14114 20.8952L9.04616 20.9401L8.97757 20.9904L8.93008 21.0327L8.85357 21.1438V21.1914L8.90898 21.3051L8.96174 21.3765L9.04088 21.4505L9.12531 21.5008L9.18335 21.5193H9.22556H9.28623L9.51576 21.4162L9.65294 21.3844H9.74264L9.7057 21.2866L9.65558 21.157L9.55269 20.8925L9.51048 20.7523L9.29943 20.7206L9.25721 20.7391Z" fill="#202020"/>
<path d="M14.0859 16.4734L14.0199 16.4708L13.954 16.484L13.8775 16.4946L13.7772 16.5157L13.6954 16.5395L13.6031 16.5765L13.5451 16.6004L13.5055 16.6189L13.4765 16.6294H13.4554L13.4369 16.6215L13.4184 16.6056L13.4079 16.5818L13.392 16.5369L13.3841 16.4708V16.3967L13.3947 16.3068L13.4184 16.1878L13.458 16.0556L13.5688 15.6747L13.5952 15.5055L13.5978 15.3865L13.5873 15.2807L13.5714 15.2093L13.5345 15.1273L13.5028 15.085L13.4659 15.0506L13.4263 15.0268L13.3762 15.003L13.334 14.9924L13.2812 14.9845H13.2311L13.1572 14.9898L13.0781 14.9977H13.0174L12.9567 15.0004H12.8961L12.8011 14.9951L12.7457 14.9924L12.6876 14.9951L12.6243 15.003L12.5979 15.0109L12.5637 15.0242L12.532 15.04L12.5109 15.0559L12.4845 15.0744L12.466 15.0956L12.4423 15.1246L12.4265 15.1537L12.4001 15.2066L12.3843 15.2622L12.3737 15.3309L12.3711 15.3891L12.3737 15.5213L12.3895 15.6245L12.4159 15.7567L12.4528 15.8942L12.4792 15.9815L12.5214 16.0979L12.5505 16.1984L12.5689 16.3094L12.5663 16.439L12.5584 16.5316L12.4871 16.648L12.4317 16.6903H12.3658L12.2972 16.6876H12.2207L12.1547 16.6929L12.0175 16.6982L11.941 16.7088L11.8355 16.7299L11.7168 16.7617L11.7907 16.6876L11.8936 16.5554L11.941 16.4602L12.0149 16.2936L12.0703 16.1217L12.1204 15.8863L12.1389 15.6853L12.1363 15.5531L12.1415 15.3732L12.1758 15.1908L12.2471 14.9792L12.2998 14.8575L12.4713 14.839L12.6481 14.8205L12.8196 14.8126L12.9515 14.8099L13.2417 14.8126L13.5398 14.8364L13.7456 14.8575L13.7614 14.9395L13.8194 15.2172L13.8801 15.4923L13.8986 15.6324L13.9065 15.717L13.9091 15.8599L13.9065 15.9127L13.8986 15.9762L13.8933 16.0318L13.888 16.082L13.8907 16.1481L13.9038 16.2248L13.9302 16.2936L13.9645 16.3518L14.0173 16.4046L14.0859 16.4734Z" fill="#202020"/>
<path d="M12.5096 16.7378C12.5035 16.7381 12.4973 16.7367 12.4918 16.734C12.4863 16.7312 12.4815 16.7271 12.478 16.722C12.4706 16.7141 12.4664 16.7037 12.4664 16.6929C12.4664 16.6821 12.4706 16.6717 12.478 16.6638L12.5492 16.5448V16.4469V16.3147L12.5308 16.201L12.5017 16.1005L12.4305 15.8995L12.3962 15.762L12.3672 15.6324V15.5293V15.3997L12.3857 15.3388V15.2727L12.4015 15.2198L12.4411 15.1378L12.4806 15.0929L12.5255 15.0585L12.5888 15.0294H12.6125H12.6759H12.7313H12.8869H13.0663H13.2167H13.2668L13.3565 15.0479L13.4066 15.0691L13.4409 15.0902L13.4779 15.1246L13.5069 15.1617L13.5465 15.241L13.5623 15.3097V15.4155V15.5345L13.5385 15.7012L13.3855 16.2301L13.3618 16.3517V16.4443V16.521V16.5897L13.3776 16.6374L13.3934 16.6612C13.3982 16.6714 13.399 16.6831 13.3956 16.6939C13.3921 16.7047 13.3848 16.7137 13.375 16.7193C13.3651 16.724 13.3539 16.7247 13.3436 16.7212C13.3332 16.7178 13.3246 16.7105 13.3196 16.7008L13.3011 16.6691L13.2826 16.6056V16.5263V16.3967V16.2988L13.309 16.1693L13.3512 16.0317L13.4594 15.6536L13.4831 15.4975V15.3891V15.2965L13.4673 15.2383L13.4409 15.1722L13.4198 15.1458L13.3934 15.1246L13.3697 15.1088L13.3117 15.0744H13.2299L12.8948 15.0902H12.7392H12.6943L12.6231 15.1061L12.5624 15.1352L12.5334 15.1643L12.507 15.2013L12.4885 15.2463V15.2859L12.4754 15.397V15.516V15.6139L12.5017 15.7382L12.5624 15.955L12.6046 16.0714L12.6363 16.1798L12.6547 16.3015V16.4469V16.5554C12.6563 16.5614 12.6563 16.5678 12.6547 16.5739L12.573 16.7061V16.7193H12.5545C12.5505 16.7273 12.5438 16.7336 12.5355 16.737C12.5273 16.7404 12.5181 16.7407 12.5096 16.7378Z" fill="#202020"/>
<path d="M12.8817 16.4179L12.7603 16.3967L12.6495 16.3465L12.573 16.2857C12.5668 16.2808 12.5616 16.2747 12.5579 16.2677C12.5541 16.2608 12.5518 16.2531 12.551 16.2452C12.5503 16.2374 12.5512 16.2294 12.5536 16.2219C12.5561 16.2144 12.56 16.2074 12.5652 16.2015C12.5704 16.1955 12.5768 16.1907 12.5839 16.1873C12.5911 16.1839 12.5988 16.182 12.6067 16.1817C12.6146 16.1815 12.6225 16.1828 12.6298 16.1856C12.6372 16.1885 12.6439 16.1928 12.6495 16.1984L12.7313 16.2592L12.7946 16.2883H12.8289H12.8843H12.9529L13.0663 16.2566L13.1217 16.2328L13.2035 16.1878L13.2853 16.1323C13.2978 16.1269 13.3117 16.1261 13.3247 16.13C13.3377 16.1338 13.3489 16.1422 13.3565 16.1535C13.364 16.1648 13.3673 16.1784 13.3659 16.1919C13.3645 16.2054 13.3583 16.218 13.3486 16.2275L13.2642 16.2857L13.1085 16.365L13.04 16.3862L12.9687 16.402L12.8817 16.4179Z" fill="#202020"/>
<path d="M12.2467 14.6803L12.1412 14.6512L12.0621 14.6036L11.9935 14.5243L11.9486 14.4132L11.9434 14.2995L11.9671 14.2149L12.0014 14.1514L12.0594 14.0879L12.1148 14.0483L12.1913 14.0165L12.2547 14.0059L12.3628 14.0007L12.4631 13.9689L12.5449 13.9293L12.6214 13.8816L12.682 13.8288L12.7269 13.7706L12.7797 13.6939L12.7955 13.678L12.8667 13.6278L12.9089 13.6066L13.0118 13.5854L13.0857 13.5907L13.178 13.6225L13.244 13.6648L13.2888 13.7124L13.3284 13.7706L13.3337 13.7891L13.4418 13.8869L13.5289 13.9425L13.5869 13.9689L13.6503 13.9901L13.7347 14.0059L13.8376 14.0112L13.8982 14.0297L13.9906 14.0853L14.0433 14.1408L14.0882 14.2175L14.1067 14.2836L14.1119 14.3497L14.0961 14.445L14.0645 14.5137L14.0196 14.5745L13.9721 14.6169L13.9141 14.6512L13.856 14.6697L13.8112 14.6777L13.8059 14.683L13.8033 14.7094L13.8006 14.7412L13.7874 14.7861L13.7743 14.8152L13.7426 14.8231L13.5949 14.8073L13.4075 14.7835L13.2545 14.7702H13.0092L12.777 14.7676L12.5528 14.7914L12.3787 14.802L12.3022 14.8178L12.2784 14.8099L12.2679 14.7967L12.2599 14.7729L12.252 14.7412L12.2467 14.6803Z" fill="#202020"/>
<path d="M11.4424 3.91665H0.509766V6.69615H11.4424V9.29317H14.2151V6.69615H25.1477L25.153 3.91665H14.2151V1.32227H11.4424V3.91665Z" fill="#202020"/>
<path d="M25.1489 9.20864V9.02881H0.513672V10.4728V11.4275L0.534777 12.5171L0.57435 13.6754L0.635028 14.8391L0.722088 15.9472L0.838167 16.9495L0.983267 17.846L1.15739 18.6394L1.35261 19.372L1.56894 20.0543L1.80374 20.6758L2.06756 21.2655L2.33137 21.8367L2.59519 22.4L2.88539 22.966L3.1835 23.5372L3.52647 24.1058L3.90109 24.6797L4.31792 25.2615L4.78224 25.8513L5.30987 26.4569L5.88763 27.0758L6.5419 27.7052L7.28323 28.3452L8.13008 28.9905L9.08246 29.6199L10.1799 30.2678L11.4225 30.9105L12.8287 31.5478L14.2322 30.921L15.4748 30.2784L16.5722 29.6199L17.5352 28.972L18.382 28.3267L19.1234 27.6867L19.7723 27.0678L20.3554 26.4463L20.883 25.8407L21.3473 25.251L21.7642 24.6691L22.1414 24.0953L22.4712 23.5372L22.7825 22.9739L23.0727 22.408L23.3365 21.8447L23.6003 21.2734L23.8483 20.6837L24.0831 20.0622L24.2995 19.3931L24.4947 18.6605L24.6662 17.8672L24.8113 16.9706L24.93 15.9683L25.017 14.8602L25.0777 13.6966L25.1147 12.5382L25.1358 11.4486V10.4939V9.20864H25.1489ZM12.8287 28.7048C10.9824 28.7054 9.17741 28.157 7.64206 27.1291C6.10671 26.1011 4.90996 24.6398 4.20317 22.93C3.49639 21.2202 3.31133 19.3387 3.67139 17.5234C4.03146 15.7081 4.92047 14.0407 6.226 12.732C7.53152 11.4232 9.1949 10.5321 11.0057 10.1711C12.8166 9.81017 14.6935 9.99568 16.3992 10.7042C18.1048 11.4127 19.5625 12.6124 20.588 14.1515C21.6134 15.6906 22.1604 17.5 22.1599 19.3508C22.1599 21.8316 21.1768 24.2109 19.4268 25.9651C17.6769 27.7193 15.3035 28.7048 12.8287 28.7048Z" fill="#202020"/>
<path d="M12.7712 31.8467L11.2964 31.1776L10.0459 30.5296L8.94053 29.8843L7.96968 29.2311L7.10963 28.562L6.35775 27.9167L5.69821 27.2794L5.11254 26.6552L4.5849 26.0443L4.11531 25.4467L3.70375 24.8595L3.32385 24.2804L2.98089 23.7065L2.66431 23.1352L2.36092 22.5772L1.83328 21.4348L1.56947 20.8397L1.33203 20.2129L1.1157 19.5359L0.915199 18.7954L0.75427 17.9835L0.609171 17.0791L0.490453 16.0662L0.400755 14.9501L0.340077 13.7812L0.300504 12.6202L0.271484 10.5786V9.80632L0.308419 0.933594H25.2629V9.81161V11.5306L25.2418 12.6202L25.2022 13.7812L25.1416 14.9475L25.0492 16.0556L24.9305 17.0632L24.7854 17.9676L24.6139 18.7769L24.4161 19.5174L24.1997 20.1944L23.9623 20.8238L23.6985 21.4215L23.1708 22.5667L22.8806 23.1326L22.5667 23.7012L22.2211 24.2751L21.8438 24.8595L21.4217 25.4467L20.9548 26.0443L20.4271 26.6552L19.8415 27.2794L19.1846 27.9167L18.4538 28.562L17.599 29.2126L16.6071 29.8685L15.5017 30.5217L14.2485 31.1696L12.7712 31.8467ZM0.778014 1.3964L0.733165 10.5786L0.762185 12.6176L0.801758 13.7521L0.862436 14.9131L0.949495 16.0133L1.06558 17.0024L1.21067 17.8883L1.37952 18.6817L1.56947 19.4037L1.78316 20.0595L2.01268 20.6678L2.25539 21.247L2.78303 22.3709L3.06795 22.929L3.37662 23.4843L3.71166 24.0424L4.08101 24.6083L4.49256 25.1795L4.94897 25.7614L5.45814 26.3564L6.02798 26.9647L6.6717 27.5835L7.40247 28.2129L8.2335 28.8476L9.18324 29.485L10.2754 30.1224L11.5048 30.7597L12.7791 31.3362L14.0639 30.7544L15.288 30.1144L16.3696 29.4744L17.3194 28.8371L18.153 28.2024L18.8812 27.5729L19.5091 26.9541L20.0763 26.3458L20.5881 25.7508L21.0418 25.169L21.4613 24.5951L21.8307 24.0318L22.1657 23.4738L22.4717 22.9184L22.7593 22.3604L23.2869 21.2364L23.5349 20.6546L23.7618 20.0437L23.9755 19.3878L24.1654 18.6711L24.3343 17.8777L24.4767 16.9971L24.5928 16.008L24.6799 14.9105L24.7379 13.7521L24.7854 12.6043L24.8065 10.5786V9.80632V1.39111L0.778014 1.3964Z" fill="#202020"/>
<path d="M11.0294 17.7402C10.9987 17.74 10.9693 17.7277 10.9477 17.7058C10.9286 17.6849 10.918 17.6575 10.918 17.6291C10.918 17.6007 10.9286 17.5734 10.9477 17.5524L11.5755 16.759L11.7549 16.6797L12.0188 16.6374H12.1216H12.826L13.3194 16.5924L14.0238 16.3967L14.1425 16.4126L14.1873 16.4338L14.2269 16.4628L14.2981 16.5316L14.5145 16.8278L14.6279 17.0156C14.6356 17.0317 14.6396 17.0493 14.6396 17.0671C14.6396 17.085 14.6356 17.1026 14.6279 17.1187C14.6207 17.1354 14.6098 17.1502 14.5961 17.1621C14.5824 17.174 14.5662 17.1827 14.5488 17.1875L13.3669 17.4757L12.7311 17.6H12.4461L11.7233 17.5789L11.3724 17.5974L11.193 17.6423L11.1402 17.6714L11.0901 17.7111C11.074 17.7277 11.0525 17.738 11.0294 17.7402ZM12.4066 16.8648L11.7206 16.9389L11.6415 17.0023L11.4225 17.2668L11.346 17.3752L11.5755 17.3541H11.7338L12.4567 17.3752H12.7205L13.3299 17.2536L14.3535 17.005L14.2322 16.8172L14.0792 16.6347H14.0238H13.9684L13.636 16.7379L13.4407 16.7934L13.1083 16.8516L12.7996 16.8675L12.4066 16.8648Z" fill="#202020"/>
<path d="M11.0807 20.4219L10.9857 21.3263L10.904 22.2414L10.7589 23.5637L10.619 24.4153L10.5056 24.9839L10.371 25.5472L10.2128 26.1158L10.1257 26.5468L10.0334 27.0758L9.97268 27.4539L9.91992 27.8215L15.9877 27.8718L15.7239 26.7769L15.6131 26.3088L15.5287 25.9359L15.4311 25.4546L15.3704 25.0526L15.2886 24.0662L15.2622 23.1353L15.2464 22.3736V21.8764V21.7019L15.191 21.7495L15.0512 21.9029L14.9272 22.0166L14.7689 22.1779L14.6 20.3452L14.6845 20.1389L14.8639 21.9214L15.0485 21.7151L15.3123 21.3845L15.4654 21.1941L15.6316 20.9693L15.7107 20.7895L15.8162 20.4774L15.8848 20.242L15.9297 20.0305V19.8348L15.8822 19.4222L15.7635 19.0837L15.5129 18.5125L15.2701 17.9835L15.2174 17.9015L14.8823 17.481L14.5367 17.0844L14.4708 17.1029L13.3469 17.3673L12.9142 17.4758L12.7111 17.5075H12.4473L12.0516 17.4863L11.7719 17.4731H11.5714L11.3577 17.4943L11.2443 17.5207L11.1467 17.5551L11.0886 17.5868L11.02 17.6371L10.9726 17.69L10.9172 17.7587L10.8591 17.8539L10.8116 17.9412L10.7457 18.0814L10.6797 18.248L10.5716 18.5601L10.4792 18.8536L10.3499 19.2186L10.2814 19.3534L10.1442 19.565L9.98324 19.7898L9.85397 19.9723L9.74316 20.1442L9.65874 20.2896L9.58751 20.4589L9.56641 20.5409V20.6096V20.6467V20.681V20.7207L9.58223 20.7789L9.61125 20.8609L9.64555 20.9508L9.66929 21.0037L9.70095 21.0777L9.7458 21.1729L9.79329 21.2787L9.8355 21.3739L9.85661 21.4321L9.87507 21.5167V21.5961L9.90409 21.7204L9.91992 21.8182L9.93839 21.924L9.97532 22.0563L9.98851 22.0906L10.0149 22.1382L10.036 22.1647L10.065 22.1911H10.0967H10.1389H10.1705H10.2154L10.2471 22.1726L10.2787 22.1515L10.3051 22.1303L10.3499 22.0853L10.4106 22.0086L10.4739 21.9134L10.5425 21.7918L10.59 21.6939L10.7246 21.4215L10.8143 21.1571L10.9172 20.8265L10.9673 20.3928L11.0438 19.7898L11.0965 19.4275L11.2074 18.7769L11.3102 18.8192L11.1942 19.5703L11.0807 20.4219ZM13.8825 18.9065L14.8902 19.171L14.571 20.2791H14.4391H14.2333H14.1252H14.0566H14.0065H13.9669H13.922H13.8957H13.864H13.8191L13.7901 20.324V20.3637V20.3981L13.806 20.4245L13.8218 20.443L13.8508 20.4695L13.8877 20.4959L13.9827 20.5541H13.9062H13.8112H13.6978H13.5975L13.4894 20.5726L13.3759 20.5435L13.8825 18.9065ZM13.3707 20.7577V20.7313L13.3838 20.7075L13.4023 20.6863L13.4287 20.6678L13.4841 20.6467H13.5659H13.6186L13.7057 20.6282H13.8165H13.9141H13.9959H14.0328H14.0539V20.6123L14.0355 20.5964L14.0065 20.5779L13.9115 20.5224L13.8798 20.5012L13.8587 20.4801V20.4615V20.443V20.4166H13.893H13.9141H13.959H14.0012H14.0592H14.1331H14.2413H14.4365H14.4866H14.5341L14.5842 20.9799L14.542 21.0143L14.4919 21.0486L14.447 21.0725L14.3626 21.1121L14.294 21.1412L14.2254 21.1677L14.1331 21.1994L14.0434 21.2258L13.9299 21.2523H13.8455H13.7506H13.6529L13.55 21.1571L13.4815 21.1095L13.4419 21.0619L13.3997 20.9799L13.3838 20.927V20.8556V20.7895L13.3707 20.7577Z" fill="#202020"/>
</svg>
